<mxfile host="app.diagrams.net" agent="Mozilla/5.0 (Macintosh; Intel Mac OS X 10_15_7) AppleWebKit/537.36 (KHTML, like Gecko) Chrome/136.0.0.0 Safari/537.36" version="28.0.6">
  <diagram name="第 1 页" id="suvy1HZ4bt8ngp4mgRus">
    <mxGraphModel dx="763" dy="1126" grid="1" gridSize="10" guides="1" tooltips="1" connect="1" arrows="1" fold="1" page="1" pageScale="1" pageWidth="827" pageHeight="1169" math="0" shadow="0">
      <root>
        <mxCell id="0" />
        <mxCell id="1" parent="0" />
        <mxCell id="K8PyboY32x09uP1oWoMW-4" value="" style="edgeStyle=orthogonalEdgeStyle;rounded=0;orthogonalLoop=1;jettySize=auto;html=1;" edge="1" parent="1" source="K8PyboY32x09uP1oWoMW-2" target="K8PyboY32x09uP1oWoMW-3">
          <mxGeometry relative="1" as="geometry" />
        </mxCell>
        <mxCell id="K8PyboY32x09uP1oWoMW-7" style="edgeStyle=orthogonalEdgeStyle;rounded=0;orthogonalLoop=1;jettySize=auto;html=1;exitX=1;exitY=0.5;exitDx=0;exitDy=0;entryX=0;entryY=0.5;entryDx=0;entryDy=0;" edge="1" parent="1" source="K8PyboY32x09uP1oWoMW-2" target="K8PyboY32x09uP1oWoMW-6">
          <mxGeometry relative="1" as="geometry" />
        </mxCell>
        <mxCell id="K8PyboY32x09uP1oWoMW-8" style="edgeStyle=orthogonalEdgeStyle;rounded=0;orthogonalLoop=1;jettySize=auto;html=1;exitX=1;exitY=0.5;exitDx=0;exitDy=0;entryX=0;entryY=0.5;entryDx=0;entryDy=0;" edge="1" parent="1" source="K8PyboY32x09uP1oWoMW-2" target="K8PyboY32x09uP1oWoMW-5">
          <mxGeometry relative="1" as="geometry" />
        </mxCell>
        <mxCell id="K8PyboY32x09uP1oWoMW-2" value="master1" style="rounded=0;whiteSpace=wrap;html=1;" vertex="1" parent="1">
          <mxGeometry x="100" y="210" width="100" height="40" as="geometry" />
        </mxCell>
        <mxCell id="K8PyboY32x09uP1oWoMW-3" value="node2" style="rounded=0;whiteSpace=wrap;html=1;" vertex="1" parent="1">
          <mxGeometry x="280" y="210" width="100" height="40" as="geometry" />
        </mxCell>
        <mxCell id="K8PyboY32x09uP1oWoMW-5" value="node1" style="rounded=0;whiteSpace=wrap;html=1;" vertex="1" parent="1">
          <mxGeometry x="280" y="140" width="100" height="40" as="geometry" />
        </mxCell>
        <mxCell id="K8PyboY32x09uP1oWoMW-6" value="node3" style="rounded=0;whiteSpace=wrap;html=1;" vertex="1" parent="1">
          <mxGeometry x="280" y="280" width="100" height="40" as="geometry" />
        </mxCell>
      </root>
    </mxGraphModel>
  </diagram>
</mxfile>
